<svg class="typst-doc" viewBox="0 0 341.71266666666673 52.02000000000001" width="341.71266666666673pt" height="52.02000000000001pt" xmlns="http://www.w3.org/2000/svg" xmlns:xlink="http://www.w3.org/1999/xlink" xmlns:h5="http://www.w3.org/1999/xhtml">
    <path class="typst-shape" fill="#ffffff" fill-rule="nonzero" d="M 0 0v 52.02 h 341.71268 v -52.02 Z "/>
    <g>
        <g class="typst-group">
            <g>
                <g class="typst-text" transform="matrix(1 0 0 -1 5 32.86)">
                    <use xlink:href="#gD9E78C6AF980A0F6D6DDB39EC4FAA67F" x="0" y="0" fill="#000000" fill-rule="nonzero"/>
                </g>
                <g class="typst-text" transform="matrix(1 0 0 -1 17.599999999999998 19.32)">
                    <use xlink:href="#g4A2F9A9A206A8799853FA3D8A232B16E" x="0" y="0" fill="#000000" fill-rule="nonzero"/>
                </g>
                <g class="typst-text" transform="matrix(1 0 0 -1 29.48 19.32)">
                    <use xlink:href="#gE9DE1DBD3344A8FDD525BEB3A78F7489" x="0" y="0" fill="#000000" fill-rule="nonzero"/>
                </g>
                <g class="typst-text" transform="matrix(1 0 0 -1 20.800000000000004 46.580000000000005)">
                    <use xlink:href="#g4A2F9A9A206A8799853FA3D8A232B16E" x="0" y="0" fill="#000000" fill-rule="nonzero"/>
                </g>
                <g class="typst-text" transform="matrix(1 0 0 -1 32.68000000000001 46.580000000000005)">
                    <use xlink:href="#g69405EA3F5D125E681CCA03E050BCFD6" x="0" y="0" fill="#000000" fill-rule="nonzero"/>
                </g>
                <path class="typst-shape" fill="none" stroke="#000000" stroke-width="0.96" stroke-linecap="butt" stroke-linejoin="miter" stroke-miterlimit="4" transform="matrix(1 0 0 1 17.599999999999998 27.860000000000003)" d="M 0 0h 25.5 "/>
                <g class="typst-text" transform="matrix(1 0 0 -1 49.54444444444445 32.86)">
                    <use xlink:href="#g6C74F886C5BCA87817AE818C9FD79377" x="0" y="0" fill="#000000" fill-rule="nonzero"/>
                </g>
                <g class="typst-text" transform="matrix(1 0 0 -1 69.5488888888889 32.86)">
                    <use xlink:href="#gD9E78C6AF980A0F6D6DDB39EC4FAA67F" x="0" y="0" fill="#000000" fill-rule="nonzero"/>
                </g>
                <g class="typst-text" transform="matrix(1 0 0 -1 80.1488888888889 32.86)">
                    <use xlink:href="#gBA2C7633C0DABF760BA111B1F5BC09D8" x="0" y="0" fill="#000000" fill-rule="nonzero"/>
                </g>
                <g class="typst-text" transform="matrix(1 0 0 -1 87.9288888888889 32.86)">
                    <use xlink:href="#gE9DE1DBD3344A8FDD525BEB3A78F7489" x="0" y="0" fill="#000000" fill-rule="nonzero"/>
                </g>
                <g class="typst-text" transform="matrix(1 0 0 -1 105.99333333333335 32.86)">
                    <use xlink:href="#g5E05E7E194A1A6E186B09090E873613A" x="0" y="0" fill="#000000" fill-rule="nonzero"/>
                </g>
                <g class="typst-text" transform="matrix(1 0 0 -1 115.99777777777781 32.86)">
                    <use xlink:href="#g39060281390BC911B52F6DFBB233CD2A" x="0" y="0" fill="#000000" fill-rule="nonzero"/>
                </g>
                <g class="typst-text" transform="matrix(1 0 0 -1 132.65777777777782 32.86)">
                    <use xlink:href="#g51359C02BAEBDB08BA3EE1BD44EBCB20" x="0" y="0" fill="#000000" fill-rule="nonzero"/>
                </g>
                <g class="typst-text" transform="matrix(1 0 0 -1 140.4377777777778 32.86)">
                    <use xlink:href="#gE9DE1DBD3344A8FDD525BEB3A78F7489" x="0" y="0" fill="#000000" fill-rule="nonzero"/>
                </g>
                <g class="typst-text" transform="matrix(1 0 0 -1 159.61333333333337 32.86)">
                    <use xlink:href="#g1C1FA80D1191B3EEB9BE70B5E485D6B5" x="0" y="0" fill="#000000" fill-rule="nonzero"/>
                </g>
                <g class="typst-text" transform="matrix(1 0 0 -1 180.72888888888892 32.86)">
                    <use xlink:href="#g320D38F19AF0235BD2439B639FA36196" x="0" y="0" fill="#000000" fill-rule="nonzero"/>
                </g>
                <g class="typst-text" transform="matrix(1 0 0 -1 196.2888888888889 32.86)">
                    <use xlink:href="#g39060281390BC911B52F6DFBB233CD2A" x="0" y="0" fill="#000000" fill-rule="nonzero"/>
                </g>
                <g class="typst-text" transform="matrix(1 0 0 -1 212.9488888888889 32.86)">
                    <use xlink:href="#gE6354BC5E9D09CB9E749E7A349F27F1A" x="0" y="0" fill="#000000" fill-rule="nonzero"/>
                </g>
                <g class="typst-text" transform="matrix(1 0 0 -1 227.75333333333336 32.86)">
                    <use xlink:href="#g6C74F886C5BCA87817AE818C9FD79377" x="0" y="0" fill="#000000" fill-rule="nonzero"/>
                </g>
                <g class="typst-text" transform="matrix(1 0 0 -1 247.7577777777778 32.86)">
                    <use xlink:href="#g445806B9CDC317F5DCD2FCDBDD34D2E1" x="0" y="0" fill="#000000" fill-rule="nonzero"/>
                </g>
                <g class="typst-text" transform="matrix(1 0 0 -1 259.8177777777778 32.86)">
                    <use xlink:href="#g39060281390BC911B52F6DFBB233CD2A" x="0" y="0" fill="#000000" fill-rule="nonzero"/>
                </g>
                <g class="typst-text" transform="matrix(1 0 0 -1 276.47777777777776 25.6)">
                    <use xlink:href="#g2A4E076D53D810EF967D5F332AB13C9" x="0" y="0" fill="#000000" fill-rule="nonzero"/>
                </g>
                <g class="typst-text" transform="matrix(1 0 0 -1 285.56377777777783 32.86)">
                    <use xlink:href="#gE9DE1DBD3344A8FDD525BEB3A78F7489" x="0" y="0" fill="#000000" fill-rule="nonzero"/>
                </g>
                <g class="typst-text" transform="matrix(1 0 0 -1 303.62822222222223 32.86)">
                    <use xlink:href="#g6C74F886C5BCA87817AE818C9FD79377" x="0" y="0" fill="#000000" fill-rule="nonzero"/>
                </g>
                <g class="typst-text" transform="matrix(1 0 0 -1 323.6326666666667 32.86)">
                    <use xlink:href="#gD6A26457B746D0BC46217301334044EE" x="0" y="0" fill="#000000" fill-rule="nonzero"/>
                </g>
            </g>
        </g>
    </g>
    <defs id="glyph">
        <symbol id="gD9E78C6AF980A0F6D6DDB39EC4FAA67F" overflow="visible">
            <path d="M 0 0m 7.22 8.84 c -2.2599998 0 -4.14 -2.4400005 -4.64 -4.44 l -1.92 -7.7799997 c -0.03999996 -0.16000009 -0.060000002 -0.26 -0.060000002 -0.31999993 c 0 -0.42000008 0.19999999 -0.6199999 0.62000006 -0.6199999 c 0.29999995 0 0.55999994 0.15999985 0.7599999 0.4599998 l 1.2199999 4.7799997 c 0.46000004 -0.78 1.0999999 -1.18 1.9200001 -1.18 c 1.3200002 0 2.48 0.64 3.5 1.9399999 c 0.9399996 1.2199999 1.4200001 2.52 1.4200001 3.8600001 c 0 1.8199997 -1.0600004 3.3000002 -2.8200002 3.3000002 Z m -0.03999996 -0.6000004 c 0.86000013 0 1.2800002 -0.6199999 1.2800002 -1.8600001 c 0 -0.53999996 -0.119999886 -1.2399998 -0.34000015 -2.1399999 c -0.44000006 -1.6999998 -1.06 -2.8399997 -1.8400002 -3.4399998 c -0.42000008 -0.31999996 -0.7999997 -0.47999996 -1.1799998 -0.47999996 c -0.3800001 0 -0.7199998 0.13999999 -0.98 0.39999998 c -0.42000008 0.42000002 -0.6199999 0.85999995 -0.6199999 1.28 c 0.01999998 0.13999987 0.059999943 0.37999988 0.13999987 0.72 c 0.46000004 1.8999999 0.86000013 3.1199996 1.1799998 3.6799996 c 0.7000003 1.2200003 1.48 1.8400002 2.3600001 1.8400002 Z "/>
        </symbol>
        <symbol id="g4A2F9A9A206A8799853FA3D8A232B16E" overflow="visible">
            <path d="M 0 0m 5.12 11.48 c 0 0.46000004 -0.3000002 0.72000027 -0.8800001 0.7600002 c 0.6199999 0.9399996 1.52 1.4200001 2.7000003 1.4200001 c 1.8399997 0 2.7399993 -1.54 2.7399993 -3.5 c 0 -0.8199997 -0.15999985 -1.8199997 -0.45999908 -3.04 c -0.34000015 1.3800001 -1.2000008 2.08 -2.5400004 2.08 c -1.54 0 -2.8799999 -0.64000034 -4.08 -1.8800001 c -1.1999999 -1.2399998 -1.8 -2.62 -1.8 -4.16 c 0 -0.74 0.26 -1.4999999 0.78 -2.2599998 c 0.6200001 -0.9 1.5799999 -1.3399999 2.92 -1.3399999 c 1.7999997 0 3.2999997 0.84 4.4799995 2.54 c 1.1199999 1.6400001 2.3400002 4.48 2.3400002 7.02 c 0 1.4200001 -0.35999966 2.62 -1.0799999 3.58 c -0.77999973 1.0799999 -1.8800001 1.6199999 -3.2599998 1.6199999 c -1.3400002 0 -2.3400002 -0.46000004 -3.0200002 -1.3999996 c -0.53999996 -0.7400007 -0.81999993 -1.3400002 -0.81999993 -1.8000002 c 0 -0.52000046 0.27999997 -0.77999973 0.84000015 -0.77999973 c 0.5999999 0 1.1399999 0.53999996 1.1399999 1.1399994 Z m 3.6599998 -5.4199996 c 0 -1.2600002 -0.3800001 -2.5 -1.1599998 -3.72 c -0.86000013 -1.3799999 -1.8800001 -2.06 -3.06 -2.06 c -1.3199999 0 -2.08 0.86 -2.08 2.1399999 c 0 0.5600002 0.13999987 1.3400002 0.41999984 2.34 c 0.27999997 1 0.5600002 1.7000003 0.86000013 2.12 c 0.79999995 1.1399999 1.78 1.7199998 2.9199998 1.7199998 c 1.4599996 0 2.1 -1.0799994 2.1 -2.5399995 Z "/>
        </symbol>
        <symbol id="gE9DE1DBD3344A8FDD525BEB3A78F7489" overflow="visible">
            <path d="M 0 0m 12.94 2.96 c 0 0.27999997 -0.3000002 0.27999997 -0.47999954 0.27999997 c -0.22000027 0 -0.3000002 0 -0.40000057 -0.10000014 c -0.03999996 -0.03999996 -0.03999996 -0.07999992 -0.15999985 -0.5799999 c -0.39999962 -1.56 -0.84000015 -2 -1.3599997 -2 c -0.3000002 0 -0.46000004 0.19999999 -0.46000004 0.73999995 c 0 0.34000003 0.07999992 0.65999997 0.27999973 1.46 c 0.27999973 1.1999998 0.5799999 2.3999999 0.8999996 3.5799997 c 0.14000034 0.55999994 0.3800001 1.52 0.3800001 1.6600003 c 0 0.42000008 -0.3199997 0.8800001 -0.9399996 0.8800001 c -0.3199997 0 -1.0600004 -0.1800003 -1.3199997 -1.0600004 l -1.1400003 -4.5599995 c -0.119999886 -0.46000004 -0.25999975 -1.04 -0.2999997 -1.4 c -0.36000013 -0.48000002 -1.1400003 -1.3 -2.1600003 -1.3 c -1.1799998 0 -1.1999998 0.99999994 -1.1999998 1.46 c 0 1.22 0.6199999 2.7799997 1.1799998 4.22 c 0.20000029 0.52 0.26000023 0.65999985 0.26000023 1 c 0 1.1599998 -1.1600003 1.8000002 -2.26 1.8000002 c -2.12 0 -3.12 -2.7200003 -3.12 -3.12 c 0 -0.2800002 0.3 -0.2800002 0.48000002 -0.2800002 c 0.24000001 0 0.38 0 0.45999992 0.26000023 c 0.6600001 2.2199998 1.74 2.4199996 2.06 2.4199996 c 0.1400001 0 0.34000015 0 0.34000015 -0.42000008 c 0 -0.45999956 -0.24000001 -1.02 -0.32000017 -1.2599998 c -0.8399999 -2.1 -1.2199998 -3.22 -1.2199998 -4.2 c 0 -2.28 2 -2.6000001 3.1799998 -2.6000001 c 0.5799999 0 1.46 0.08 2.54 1.1 c 0.64000034 -0.98 1.8000002 -1.1 2.2799997 -1.1 c 0.7399998 0 1.3199997 0.42 1.7399998 1.14 c 0.5 0.8 0.7600002 1.8799999 0.7600002 1.98 Z "/>
        </symbol>
        <symbol id="g69405EA3F5D125E681CCA03E050BCFD6" overflow="visible">
            <path d="M 0 0m 6.6 8.38 c 0 0.17999935 -0.20000029 0.27999973 -0.6199999 0.27999973 h -1.6199999 c 0.52 2.08 0.77999973 3.1599998 0.77999973 3.2399998 c 0 0.42000008 -0.21999979 0.6199999 -0.63999987 0.6199999 c -0.46000004 0 -0.74 -0.26000023 -0.86000013 -0.77999973 l -0.74 -3.08 h -1.7799999 c -0.44 0 -0.66 -0.020000458 -0.66 -0.43999958 c 0 -0.22000027 0.19999999 -0.32000065 0.61999995 -0.32000065 h 1.6200001 c -0.98000014 -3.8999996 -1.46 -5.9599996 -1.46 -6.22 c 0 -1.1199999 0.76 -1.9 1.8799999 -1.9 c 0.76 0 1.4200001 0.34 2 1.04 c 0.48000002 0.58 0.8200002 1.1399999 1.04 1.6800001 c 0.07999992 0.22000003 0.119999886 0.3399999 0.119999886 0.39999986 c 0 0.18000007 -0.099999905 0.27999997 -0.2999997 0.27999997 c -0.16000032 0 -0.2800002 -0.099999905 -0.36000013 -0.31999993 c -0.6799998 -1.66 -1.5 -2.48 -2.48 -2.48 c -0.3399999 0 -0.52 0.27999997 -0.52 0.81999993 c 0 0.30000007 0.03999996 0.62 0.120000124 0.93999994 l 1.4199998 5.7599998 h 1.7800002 c 0.52 0 0.65999985 0.04000044 0.65999985 0.4800005 Z "/>
        </symbol>
        <symbol id="g6C74F886C5BCA87817AE818C9FD79377" overflow="visible">
            <path d="M 0 0m 13.96 5.48 h -5.7 v 5.6999993 c 0 0.32000065 -0.1600008 0.4800005 -0.4800005 0.4800005 c -0.3199997 0 -0.48000002 -0.15999985 -0.48000002 -0.4800005 v -5.6999993 h -5.7 c -0.31999993 0 -0.4799999 -0.16000032 -0.4799999 -0.48000002 c 0 -0.32000017 0.15999997 -0.48000002 0.4799999 -0.48000002 h 5.7 v -5.7 c 0 -0.32000005 0.16000032 -0.48000002 0.48000002 -0.48000002 c 0.3199997 0 0.4800005 0.15999997 0.4800005 0.48000002 v 5.7 h 5.7 c 0.3199997 0 0.47999954 0.15999985 0.47999954 0.48000002 c 0 0.25999975 -0.22000027 0.48000002 -0.47999954 0.48000002 Z "/>
        </symbol>
        <symbol id="gBA2C7633C0DABF760BA111B1F5BC09D8" overflow="visible">
            <path d="M 0 0m 6.3599997 -4.96 c 0.1800003 0 0.2800002 0.10000038 0.2800002 0.2800002 c 0 0.059999943 -0.03999996 0.13999987 -0.099999905 0.21999979 c -1.04 0.8000002 -1.8800001 2.1200001 -2.5 3.94 c -0.53999996 1.5799999 -0.81999993 3.1399999 -0.81999993 4.68 v 1.6799998 c 0 1.54 0.27999997 3.1 0.81999993 4.68 c 0.6199999 1.8200006 1.46 3.1400003 2.5 3.9400005 c 0.059999943 0.059999466 0.099999905 0.13999939 0.099999905 0.21999931 c 0 0.1800003 -0.099999905 0.2800007 -0.2800002 0.2800007 c -0.01999998 0 -0.07999992 -0.020000458 -0.13999987 -0.06000042 c -1.1999998 -0.9200001 -2.1999998 -2.2799997 -3.02 -4.0999994 c -0.78 -1.7400007 -1.1799998 -3.3800006 -1.1799998 -4.9600005 v -1.6799998 c 0 -1.5799999 0.39999986 -3.2199998 1.1799998 -4.96 c 0.8200002 -1.8199999 1.8200002 -3.18 3.02 -4.1000004 c 0.059999943 -0.03999996 0.119999886 -0.059999943 0.13999987 -0.059999943 Z "/>
        </symbol>
        <symbol id="g5E05E7E194A1A6E186B09090E873613A" overflow="visible">
            <path d="M 0 0m 3.84 5 c 0 0.5799999 -0.48000002 1.06 -1.06 1.06 c -0.5799999 0 -1.0600001 -0.48000002 -1.0600001 -1.06 c 0 -0.5799999 0.48000014 -1.0600002 1.0600001 -1.0600002 c 0.5799999 0 1.06 0.48000026 1.06 1.0600002 Z "/>
        </symbol>
        <symbol id="g39060281390BC911B52F6DFBB233CD2A" overflow="visible">
            <path d="M 0 0m 15.599999 13.139999 c 0.06000042 0.14000034 0.10000038 0.24000072 0.10000038 0.2800007 c 0 0.15999985 -0.1800003 0.23999977 -0.52000046 0.23999977 h -13.719999 c -0.3399999 0 -0.5199999 -0.07999992 -0.5199999 -0.26000023 l 6.7999997 -13.66 c 0.13999987 -0.26 0.3199997 -0.39999998 0.5799999 -0.39999998 c 0.26000023 0 0.44000053 0.13999999 0.5799999 0.39999998 Z m -6.7 -11.7 l -5.3199997 10.66 h 10.62 Z "/>
        </symbol>
        <symbol id="g51359C02BAEBDB08BA3EE1BD44EBCB20" overflow="visible">
            <path d="M 0 0m 1.56 -4.9 c 1.2 0.9200001 2.2 2.2800002 3.02 4.1000004 c 0.77999973 1.74 1.1799998 3.3799999 1.1799998 4.96 v 1.6799998 c 0 1.5799999 -0.4000001 3.2199998 -1.1799998 4.9600005 c -0.81999993 1.8199997 -1.8199999 3.1799994 -3.02 4.0999994 c -0.059999943 0.03999996 -0.120000005 0.06000042 -0.13999999 0.06000042 c -0.17999995 0 -0.27999997 -0.10000038 -0.27999997 -0.2800007 c 0 -0.07999992 0.03999996 -0.15999985 0.100000024 -0.21999931 c 1.04 -0.8000002 1.8799999 -2.12 2.5 -3.9400005 c 0.5399997 -1.5799999 0.81999993 -3.1399999 0.81999993 -4.68 v -1.6799998 c 0 -1.54 -0.2800002 -3.1 -0.81999993 -4.68 c -0.6200001 -1.8199999 -1.46 -3.1399999 -2.5 -3.94 c -0.060000062 -0.07999992 -0.100000024 -0.15999985 -0.100000024 -0.21999979 c 0 -0.17999983 0.100000024 -0.2800002 0.27999997 -0.2800002 c 0.01999998 0 0.08000004 0.01999998 0.13999999 0.059999943 Z "/>
        </symbol>
        <symbol id="g1C1FA80D1191B3EEB9BE70B5E485D6B5" overflow="visible">
            <path d="M 0 0m 13.96 7.3399997 h -12.360001 c -0.31999993 0 -0.4799999 -0.15999985 -0.4799999 -0.46000004 c 0 -0.2999997 0.15999997 -0.45999956 0.4799999 -0.45999956 h 12.360001 c 0.3199997 0 0.47999954 0.15999985 0.47999954 0.45999956 c 0 0.24000025 -0.22000027 0.46000004 -0.47999954 0.46000004 Z m 0 -3.7599998 h -12.360001 c -0.31999993 0 -0.4799999 -0.16000009 -0.4799999 -0.46000004 c 0 -0.29999995 0.15999997 -0.46000004 0.4799999 -0.46000004 h 12.360001 c 0.3199997 0 0.47999954 0.16000009 0.47999954 0.46000004 c 0 0.26 -0.22000027 0.46000004 -0.47999954 0.46000004 Z "/>
        </symbol>
        <symbol id="g320D38F19AF0235BD2439B639FA36196" overflow="visible">
            <path d="M 0 0m 13.96 5.4 h -12.360001 c -0.31999993 0 -0.4799999 -0.14000034 -0.4799999 -0.4000001 c 0 -0.26000023 0.15999997 -0.4000001 0.4799999 -0.4000001 h 12.360001 c 0.3199997 0 0.47999954 0.13999987 0.47999954 0.4000001 c 0 0.23999977 -0.23999977 0.4000001 -0.47999954 0.4000001 Z "/>
        </symbol>
        <symbol id="gE6354BC5E9D09CB9E749E7A349F27F1A" overflow="visible">
            <path d="M 0 0m 7.1 8.84 c -0.8800001 0 -1.7199998 -0.46000004 -2.54 -1.3800001 c -0.22000027 0.9200001 -0.8399999 1.3800001 -1.8199999 1.3800001 c -0.82000005 0 -1.4200001 -0.6600008 -1.84 -1.9600005 c -0.19999999 -0.65999985 -0.3 -1.04 -0.3 -1.1599998 c 0 -0.17999983 0.100000024 -0.27999973 0.32 -0.27999973 c 0.100000024 0 0.15999997 0.01999998 0.22000003 0.059999943 c 0.100000024 0.17999983 0.15999997 0.3199997 0.17999995 0.46000004 c 0.36 1.52 0.81999993 2.2799997 1.3599999 2.2799997 c 0.36000013 0 0.5400002 -0.27999973 0.5400002 -0.8200002 c 0 -0.2999997 -0.0400002 -0.63999987 -0.1400001 -0.9999995 l -2.1999998 -8.78 c -0.18 -0.6600001 -0.19999999 -0.74 -0.98 -0.74 c -0.35999998 0 -0.53999996 -0.16000009 -0.53999996 -0.46000004 c 0 -0.22000003 0.120000005 -0.31999993 0.34 -0.31999993 c 0.29999998 0 1.3399999 0.059999943 1.6399999 0.059999943 c 0.38 0 1.5799999 -0.059999943 1.96 -0.059999943 c 0.29999995 0 0.44000006 0.15999985 0.44000006 0.48000002 c 0 0.20000005 -0.18000007 0.29999995 -0.5600002 0.29999995 c -0.3599999 0 -0.89999986 -0.01999998 -0.89999986 0.22000003 c 0 0.26 0.81999993 3.3999999 0.89999986 3.7399998 c 0.4000001 -0.73999995 1 -1.1199999 1.8000002 -1.1199999 c 1.2999997 0 2.4399996 0.65999997 3.44 2 c 0.9200001 1.22 1.3800001 2.5199997 1.3800001 3.86 c 0 1.7399998 -1.04 3.2400002 -2.7000003 3.2400002 Z m -0.059999943 -0.6000004 c 0.77999973 0 1.1800003 -0.5999999 1.1800003 -1.7799997 c 0 -0.53999996 -0.12000084 -1.2600002 -0.34000063 -2.1600003 c -0.46000004 -1.7399998 -1.04 -2.8799996 -1.7399998 -3.4599998 c -0.42000008 -0.33999997 -0.8000002 -0.52 -1.1799998 -0.52 c -0.5799999 0 -0.98 0.26 -1.2 0.8 c -0.18000007 0.41999996 -0.27999997 0.7199999 -0.27999997 0.88 l 1.02 4.18 c 0.099999905 0.44000006 0.46000004 0.9000001 1.02 1.3600001 c 0.55999994 0.46000004 1.06 0.6999998 1.52 0.6999998 Z "/>
        </symbol>
        <symbol id="g445806B9CDC317F5DCD2FCDBDD34D2E1" overflow="visible">
            <path d="M 0 0m 11.44 2.84 c 0 0.18000007 -0.09999943 0.27999997 -0.3199997 0.27999997 c -0.15999985 0 -0.27999973 -0.13999987 -0.34000015 -0.39999986 c -0.39999962 -1.6 -0.8800001 -2.4 -1.4200001 -2.4 c -0.34000015 0 -0.5199995 0.27999997 -0.5199995 0.84 c 0 0.34000003 0.119999886 1.0200001 0.3800001 2.02 l 0.55999947 2.1399999 c 0.1800003 0.72000027 0.34000015 1.2200003 0.46000004 1.8400002 l 0.119999886 0.55999994 c 0.03999996 0.13999987 0.06000042 0.24000025 0.06000042 0.2800002 c 0 0.42000008 -0.22000027 0.6199999 -0.65999985 0.6199999 c -0.44000053 0 -0.72000027 -0.23999977 -0.84000015 -0.74000025 l -1.44 -5.72 c 0 -0.21999991 -0.32000017 -0.6199999 -0.96000004 -1.2199998 c -0.44000006 -0.42000002 -0.94000006 -0.62 -1.52 -0.62 c -0.9200001 0 -1.3800001 0.53999996 -1.3800001 1.6399999 c 0 0.38 0.07999992 0.91999996 0.26 1.66 l 0.8399999 3.3200002 c 0.16000032 0.6199999 0.26000023 1.06 0.3000002 1.2800002 c 0 0.41999912 -0.22000027 0.6199999 -0.65999985 0.6199999 c -0.4400003 0 -0.72000027 -0.26000023 -0.86000013 -0.7800007 l -2.8400002 -11.44 c -0.03999996 -0.16000009 -0.060000002 -0.26 -0.060000002 -0.31999993 c 0 -0.42000008 0.22000003 -0.6199999 0.64000005 -0.6199999 c 0.29999995 0 0.53999996 0.15999985 0.76 0.4599998 c 0.059999943 0.13999987 0.39999986 1.52 1.06 4.14 c 0.48000002 -0.36 1.0999999 -0.53999996 1.8600001 -0.53999996 c 1.1799998 0 1.9599996 0.62 2.58 1.3399999 c 0.21999979 -0.7399999 0.8800001 -1.3399999 1.8199997 -1.3399999 c 1.3800001 0 1.8000002 1.62 2.12 3.1 Z "/>
        </symbol>
        <symbol id="g2A4E076D53D810EF967D5F332AB13C9" overflow="visible">
            <path d="M 0 0m 1.666 5.9360003 c 0.44800007 0 0.78400004 0.33599997 0.78400004 0.7839999 c 0 0.5040002 -0.26600003 0.77 -0.78400004 0.7839999 c 0.3080001 0.65800047 1.008 1.19 1.9180001 1.19 c 1.2319999 0 2.0440001 -0.9239998 2.0440001 -2.1560001 c 0 -0.67199993 -0.23799992 -1.316 -0.72800016 -1.9460001 c -0.23799992 -0.32200003 -0.42000008 -0.546 -0.546 -0.67199993 l -3.318 -3.29 c -0.18199998 -0.16799998 -0.15399998 -0.20999998 -0.15399998 -0.63 h 5.768 l 0.43400002 2.632 h -0.5879998 c -0.09800005 -0.74199986 -0.21000004 -1.1759999 -0.33599997 -1.2739999 c -0.07000017 -0.042000055 -0.5040002 -0.07000005 -1.3300004 -0.07000005 h -2.3799999 c 0.93799996 0.8260001 1.806 1.5680002 2.6320002 2.2260003 c 0.6300001 0.49 1.0780001 0.924 1.3579998 1.3019998 c 0.42000008 0.546 0.6300001 1.1200004 0.6300001 1.7220001 c 0 0.86800003 -0.33599997 1.5539999 -1.0219998 2.0580006 c -0.60200024 0.4619999 -1.3580003 0.6999998 -2.2540002 0.6999998 c -0.77 0 -1.428 -0.22399998 -2.002 -0.67199993 c -0.602 -0.49000072 -0.91 -1.1060004 -0.91 -1.8620005 c 0 -0.47599983 0.34999996 -0.82599974 0.784 -0.82599974 Z "/>
        </symbol>
        <symbol id="gD6A26457B746D0BC46217301334044EE" overflow="visible">
            <path d="M 0 0m 12.5199995 12.44 c 0 1.0200005 -1.04 1.6000004 -2.2799997 1.6000004 c -0.9399996 0 -2.0600004 -0.3800001 -2.7599998 -1.5 c -0.46000004 -0.7399998 -0.5800004 -1.5200005 -0.96000004 -3.6599998 h -1.96 c -0.3800001 0 -0.72 0 -0.72 -0.5799999 c 0 -0.36000013 0.3399999 -0.36000013 0.6600001 -0.36000013 h 1.8399997 l -1.52 -8.52 c -0.03999996 -0.18 -0.25999975 -1.44 -0.35999966 -1.72 c -0.03999996 -0.099999905 -0.36000013 -1.02 -1 -1.02 c -0.3800001 0 -0.5400002 0.059999943 -0.68000007 0.120000124 c 0.5 0.23999977 0.8799999 0.75999975 0.8799999 1.3199998 c 0 0.6 -0.48000002 0.92 -0.98 0.92 c -0.8199998 0 -1.4399998 -0.71999997 -1.4399998 -1.48 c 0 -1.0799999 1.1399999 -1.5999999 2.1799998 -1.5999999 c 1.5000002 0 2.5400002 1.48 2.7 1.74 c 0.86000013 1.3199999 1.3200002 3.86 1.3800001 4.2 l 1.0799999 6.04 h 2.3400002 c 0.3800001 0 0.7399998 0 0.7399998 0.57999945 c 0 0.3600006 -0.34000015 0.3600006 -0.6800003 0.3600006 h -2.2399998 l 0.65999985 3.62 c 0.06000042 0.35999966 0.06000042 0.39999962 0.26000023 0.5799999 c 0.26000023 0.23999977 0.47999954 0.23999977 0.5799999 0.23999977 c 0.27999973 0 0.46000004 -0.03999996 0.6999998 -0.14000034 c -0.47999954 -0.23999977 -0.84000015 -0.7599993 -0.84000015 -1.2999992 c 0 -0.6000004 0.4800005 -0.9200001 0.9800005 -0.9200001 c 0.8199997 0 1.4399996 0.7199993 1.4399996 1.4799995 Z "/>
        </symbol>
    </defs>
</svg>
